<?xml version="1.0" encoding="utf-8"?>
<svg xmlns="http://www.w3.org/2000/svg" xmlns:svg="http://www.w3.org/2000/svg" version="1.1" viewBox="0 0 1400 440">
	<title>The titlepage for the Standard Ebooks edition of Tess of the d’Urbervilles, by Thomas Hardy</title>
	<g aria-label="TESS">
		<path d="m 576.28947,68.245613 h 18.33918 V 130 H 612.2193 V 68.245613 h 18.33918 V 52.807016 h -54.26901 z"/>
		<path d="M 686.05702,52.807016 H 641.89327 V 130 h 44.16375 v -15.4386 h -26.5731 V 99.029239 h 25.45029 V 83.590642 H 659.48392 V 68.245613 h 26.5731 z"/>
		<path d="m 729.61403,51.403507 c -12.44444,0 -25.16959,9.169591 -25.16959,23.578948 0,8.046784 5.4269,15.251462 14.69006,19.836258 9.16959,4.584795 17.40351,7.111107 17.40351,12.725147 0,7.20468 -7.29825,7.57895 -11.1345,7.57895 -8.60819,0 -18.90059,-8.70176 -18.90059,-8.70176 l -8.79532,14.78363 c 0,0 10.94737,10.19883 29.00585,10.19883 15.06432,0 29.09941,-6.45614 29.09941,-24.88889 0,-10.105264 -9.45029,-17.40351 -18.05848,-21.052632 -8.79532,-3.742691 -16.09356,-6.83041 -16.09356,-11.134504 0,-4.210526 3.18128,-6.923976 9.16959,-6.923976 7.95321,0 15.62573,5.333333 15.62573,5.333333 l 7.11111,-14.035088 c 0,0 -9.91813,-7.298246 -23.95322,-7.298246 z"/>
		<path d="m 795.65206,51.403507 c -12.44445,0 -25.16959,9.169591 -25.16959,23.578948 0,8.046784 5.4269,15.251462 14.69005,19.836258 9.1696,4.584795 17.40351,7.111107 17.40351,12.725147 0,7.20468 -7.29824,7.57895 -11.1345,7.57895 -8.60819,0 -18.90058,-8.70176 -18.90058,-8.70176 l -8.79533,14.78363 c 0,0 10.94737,10.19883 29.00585,10.19883 15.06433,0 29.09942,-6.45614 29.09942,-24.88889 0,-10.105264 -9.4503,-17.40351 -18.05848,-21.052632 -8.79532,-3.742691 -16.09357,-6.83041 -16.09357,-11.134504 0,-4.210526 3.18129,-6.923976 9.16959,-6.923976 7.95322,0 15.62573,5.333333 15.62573,5.333333 l 7.11111,-14.035088 c 0,0 -9.91813,-7.298246 -23.95321,-7.298246 z"/>
	</g>
	<g aria-label="OF THE D’URBERVILLES">
		<path d="m 102.38596,191.35672 c 0,22.54971 16.09356,40.04679 38.92397,40.04679 22.17544,0 38.83041,-17.49708 38.83041,-40.04679 0,-22.5497 -17.40351,-39.95321 -38.83041,-39.95321 -21.23976,0 -38.92397,17.40351 -38.92397,39.95321 z m 18.99415,0 c 0,-11.50877 6.36257,-23.01754 19.92982,-23.01754 13.66082,0 19.83626,11.50877 19.83626,23.01754 0,11.50878 -5.80117,23.01755 -19.83626,23.01755 -14.40935,0 -19.92982,-11.50877 -19.92982,-23.01755 z"/>
		<path d="M 237.53362,152.80702 H 192.90204 V 230 h 17.59064 v -30.97076 h 24.98246 v -15.4386 h -24.98246 v -15.34503 h 27.04094 z"/>
		<path d="m 272.04971,168.24561 h 18.33918 V 230 h 17.59064 v -61.75439 h 18.33918 v -15.43859 h -54.269 z"/>
		<path d="m 355.24414,199.02924 h 24.88889 V 230 h 17.59065 v -77.19298 h -17.59065 v 30.78362 H 355.24414 V 152.80702 H 337.6535 V 230 h 17.59064 z"/>
		<path d="M 458.08917,152.80702 H 413.92543 V 230 h 44.16374 v -15.4386 h -26.5731 v -15.53216 h 25.45029 v -15.4386 h -25.45029 v -15.34503 h 26.5731 z"/>
		<path d="M 503.78654,152.80702 V 230 h 22.36258 c 21.23976,0 38.92397,-16.09357 38.92397,-38.64328 0,-22.45614 -17.77778,-38.5497 -38.92397,-38.5497 z m 17.59065,61.47368 v -45.75439 h 2.71345 c 13.09941,0 21.9883,10.0117 21.9883,22.92398 -0.0936,12.91228 -8.98246,22.83041 -21.9883,22.83041 z"/>
		<path d="m 587.50292,151.40351 c -5.33334,0 -9.63743,4.39766 -9.63743,9.82456 0,4.39766 3.18129,7.76608 7.29825,8.79532 C 583.8538,177.1345 578.7076,182 578.7076,182 l 4.39766,3.46199 c 6.83041,-5.7076 14.22222,-14.03509 14.22222,-24.23392 0,-5.4269 -4.39766,-9.82456 -9.82456,-9.82456 z"/>
		<path d="m 669.41665,152.80702 h -17.59064 v 44.63158 c 0,12.91228 -3.92983,16.65497 -12.53801,16.65497 -8.60819,0 -12.53802,-3.74269 -12.53802,-16.65497 v -44.63158 h -17.59064 v 49.77777 c 0,19.08772 10.47953,28.81872 30.12866,28.81872 19.64912,0 30.12865,-9.731 30.12865,-28.81872 z"/>
		<path d="M 684.72221,152.80702 V 230 h 17.59064 V 199.49708 L 725.8918,230 h 22.36258 l -26.5731,-31.90643 c 9.45029,-2.99416 15.81286,-10.76024 15.81286,-22.36258 0,-15.15789 -10.8538,-22.92397 -25.16959,-22.92397 z m 17.59064,34.24561 V 166.8421 h 2.05848 c 6.64328,0 14.5965,0.46784 14.5965,10.10527 0,9.63742 -7.95322,10.10526 -14.5965,10.10526 z"/>
		<path d="M 756.79094,152.80702 V 230 h 29.28655 c 16,0 25.26316,-8.79532 25.26316,-21.52047 0,-12.44444 -6.83041,-17.77778 -16.46784,-19.46199 6.54971,-3.36842 9.63743,-9.45029 9.63743,-16.5614 0,-14.69006 -10.47954,-19.64912 -23.76609,-19.64912 z m 17.59064,30.22222 v -16.65497 h 1.40351 c 7.67251,0 11.69591,2.33918 11.69591,7.85965 0,6.45614 -4.11696,8.79532 -11.69591,8.79532 z m 0,33.40351 v -18.24562 h 5.52047 c 8.32748,0 12.91228,2.52632 12.91228,9.63743 0,6.08187 -4.5848,8.60819 -12.91228,8.60819 z"/>
		<path d="M 868.27194,152.80702 H 824.1082 V 230 h 44.16374 v -15.4386 h -26.5731 v -15.53216 h 25.45029 v -15.4386 h -25.45029 v -15.34503 h 26.5731 z"/>
		<path d="M 883.3845,152.80702 V 230 h 17.59065 V 199.49708 L 924.5541,230 h 22.36257 l -26.5731,-31.90643 c 9.45029,-2.99416 15.81286,-10.76024 15.81286,-22.36258 0,-15.15789 -10.8538,-22.92397 -25.16959,-22.92397 z m 17.59065,34.24561 V 166.8421 h 2.05848 c 6.64327,0 14.59649,0.46784 14.59649,10.10527 0,9.63742 -7.95322,10.10526 -14.59649,10.10526 z"/>
		<path d="m 979.59358,230 h 13.84795 l 32.37427,-77.19298 h -19.8363 l -19.46194,50.71345 -19.46199,-50.71345 h -19.83626 z"/>
		<path d="m 1051.326,152.80702 h -17.5906 V 230 h 17.5906 z"/>
		<path d="m 1085.2003,152.80702 h -17.5906 V 230 h 44.1637 v -15.4386 h -26.5731 z"/>
		<path d="M 1143.0146,152.80702 H 1125.424 V 230 h 44.1637 v -15.4386 h -26.5731 z"/>
		<path d="m 1227.4021,152.80702 h -44.1638 V 230 h 44.1638 v -15.4386 h -26.5731 v -15.53216 h 25.4503 v -15.4386 h -25.4503 v -15.34503 h 26.5731 z"/>
		<path d="m 1270.9591,151.40351 c -12.4444,0 -25.1696,9.16959 -25.1696,23.57895 0,8.04678 5.4269,15.25146 14.6901,19.83625 9.1696,4.5848 17.4035,7.11111 17.4035,12.72515 0,7.20468 -7.2982,7.57895 -11.1345,7.57895 -8.6082,0 -18.9006,-8.70176 -18.9006,-8.70176 l -8.7953,14.78363 c 0,0 10.9474,10.19883 29.0059,10.19883 15.0643,0 29.0994,-6.45614 29.0994,-24.88889 0,-10.10526 -9.4503,-17.40351 -18.0585,-21.05263 -8.7953,-3.74269 -16.0936,-6.83041 -16.0936,-11.13451 0,-4.21052 3.1813,-6.92397 9.1696,-6.92397 7.9532,0 15.6257,5.33333 15.6257,5.33333 l 7.1112,-14.03509 c 0,0 -9.9182,-7.29824 -23.9533,-7.29824 z"/>
	</g>
	<g aria-label="THOMAS HARDY">
		<path d="m 373.58224,343.68421 h 13.75439 V 390 h 13.19298 v -46.31579 h 13.75438 v -11.57895 h -40.70175 z"/>
		<path d="m 437.22807,366.77193 h 18.66667 V 390 h 13.19298 v -57.89474 h -13.19298 v 23.08772 H 437.22807 V 332.10526 H 424.03509 V 390 h 13.19298 z"/>
		<path d="m 479.89255,361.01754 c 0,16.91228 12.07017,30.03509 29.19298,30.03509 16.63158,0 29.12281,-13.12281 29.12281,-30.03509 0,-16.91228 -13.05264,-29.96491 -29.12281,-29.96491 -15.92983,0 -29.19298,13.05263 -29.19298,29.96491 z m 14.24561,0 c 0,-8.63157 4.77193,-17.26315 14.94737,-17.26315 10.24561,0 14.87719,8.63158 14.87719,17.26315 0,8.63158 -4.35088,17.26316 -14.87719,17.26316 -10.80702,0 -14.94737,-8.63158 -14.94737,-17.26316 z"/>
		<path d="m 596.88926,390 h 13.19298 l -5.19298,-57.89474 h -14.03509 l -12.8421,33.40351 -12.84211,-33.40351 H 551.13487 L 545.94189,390 h 13.19298 l 2.73685,-34.31579 h 0.35087 l 11.85965,33.96491 h 7.85965 l 11.85965,-33.96491 h 0.35088 z"/>
		<path d="M 649.77083,332.10526 H 637.5603 L 614.19188,390 h 14.17544 l 4.2807,-11.57895 h 22.03509 L 658.96381,390 h 14.17544 z m 0.42105,34.73685 H 637.13925 L 643.59539,350 h 0.14035 z"/>
		<path d="m 700.29165,331.05263 c -9.33333,0 -18.87719,6.8772 -18.87719,17.68421 0,6.03509 4.07018,11.4386 11.01755,14.8772 6.87719,3.43859 13.05263,5.33333 13.05263,9.54385 0,5.40351 -5.47369,5.68422 -8.35088,5.68422 -6.45614,0 -14.17544,-6.52632 -14.17544,-6.52632 l -6.59649,11.08772 c 0,0 8.21053,7.64912 21.75439,7.64912 11.29824,0 21.82456,-4.8421 21.82456,-18.66666 0,-7.57895 -7.08772,-13.05264 -13.54386,-15.78948 -6.59649,-2.80702 -12.07018,-5.12281 -12.07018,-8.35088 0,-3.15789 2.38597,-5.19298 6.8772,-5.19298 5.96491,0 11.71929,4 11.71929,4 l 5.33334,-10.52631 c 0,0 -7.4386,-5.47369 -17.96492,-5.47369 z"/>
		<path d="m 768.48904,366.77193 h 18.66667 V 390 h 13.19298 v -57.89474 h -13.19298 v 23.08772 H 768.48904 V 332.10526 H 755.29606 V 390 h 13.19298 z"/>
		<path d="M 843.15349,332.10526 H 830.94296 L 807.57454,390 h 14.17544 l 4.2807,-11.57895 h 22.03509 L 852.34647,390 h 14.17544 z m 0.42105,34.73685 H 830.52191 L 836.97805,350 h 0.14035 z"/>
		<path d="M 873.71162,332.10526 V 390 H 886.9046 V 367.12281 L 904.58881,390 h 16.77193 l -19.92982,-23.92982 c 7.08771,-2.24562 11.85964,-8.07018 11.85964,-16.77193 0,-11.36842 -8.14035,-17.19299 -18.87719,-17.19299 z m 13.19298,25.68421 v -15.15789 h 1.54386 c 4.98246,0 10.94737,0.35088 10.94737,7.57895 0,7.22807 -5.96491,7.57894 -10.94737,7.57894 z"/>
		<path d="M 929.01316,332.10526 V 390 h 16.77193 c 15.92983,0 29.19298,-12.07018 29.19298,-28.98246 0,-16.8421 -13.33333,-28.91228 -29.19298,-28.91228 z m 13.19298,46.10527 v -34.31579 h 2.03509 c 9.82456,0 16.49123,7.50877 16.49123,17.19298 -0.0702,9.68421 -6.73684,17.12281 -16.49123,17.12281 z"/>
		<path d="m 973.20177,332.10526 21.33333,31.92983 V 390 h 13.193 v -25.96491 l 21.3333,-31.92983 h -15.8596 l -12.0702,18.52632 -12.07018,-18.52632 z"/>
	</g>
</svg>
